# xmcd
#
# Track frame offsets:
# 150
# 16210
# 35618
# 60083
# 89845
# 108738
# 126770
# 146413
# 159588
# 176620
# 192383
# 210533
# 228015
# 242717
# 257065
#
# Disc length: 3677 seconds
#
#
# Revision: 0
# Processed by: cddbd v1.5.1PL0 Copyright (c) Steve Scherf et al.
# Submitted via: FreeRIP 2.931 
#
DISCID=ca0e5b0f
DTITLE=Kid Creole And The Coconuts - The Ultimate Collection
DYEAR=2003
DGENRE=Pop
TTITLE0=Off The Coast Of Me
TTITLE1=Mr. Softee
TTITLE2=There But For The Grace Of God Go!
TTITLE3=Yolanda
TTITLE4=Maladie D`Amour
TTITLE5=Darrio
TTITLE6=Me No Pop!
TTITLE7=Latin Music
TTITLE8=Gina Gina
TTITLE9=With A Girl Like Mimi
TTITLE10=Table Manners
TTITLE11=Dear Addy
TTITLE12=Going Places
TTITLE13=In The Jungle
TTITLE14=I`m Corrupt
EXTD=
EXTT0=
EXTT1=
EXTT2=
EXTT3=
EXTT4=
EXTT5=
EXTT6=
EXTT7=
EXTT8=
EXTT9=
EXTT10=
EXTT11=
EXTT12=
EXTT13=
EXTT14=
PLAYORDER=
